<?xml version="1.0" encoding="UTF-8" standalone="no"?>
<svg width="100%" height="100%" viewBox="0 0 308 109" version="1.1" xmlns="http://www.w3.org/2000/svg" xmlns:xlink="http://www.w3.org/1999/xlink" xmlns:sketch="http://www.bohemiancoding.com/sketch/ns">
    <title>logo</title>
    <description>Created with Sketch (http://www.bohemiancoding.com/sketch)</description>
    <defs></defs>
    <g id="Page-1" stroke="none" stroke-width="1" fill="none" fill-rule="evenodd" sketch:type="MSPage">
        <g id="Group" sketch:type="MSLayerGroup" transform="translate(4.000000, 4.000000)" fill="#404147">
            <g sketch:type="MSShapeGroup">
                <path d="M41.8632402,9.57580688e-15 L38.6369832,3.19668512 L38.6369832,51.0391479 L33.8316201,51.0391479 L33.8316201,3.19668512 L30.6298324,0 L22.5978771,0 L19.3967598,3.19668512 L19.3967598,51.0391479 L14.5913966,51.0391479 L14.5913966,3.19668512 L10.5767598,0 L4.17184358,0 L0.156536313,3.19668512 L0.156536313,63.802641 L3.35832402,67 L49.081676,67 C51.2855866,67 53.0735196,65.5576508 53.0735196,63.802641 L53.0735196,3.19668512 L49.8700559,9.57580688e-15 L41.8632402,9.57580688e-15 L41.8632402,9.57580688e-15 Z" id="Shape"></path>
                <path d="M296.88,51.0391479 L280.843911,51.0391479 L280.843911,3.19668512 L277.639777,0 L268.006257,0 L264.80514,3.19668512 L264.80514,63.802641 L268.820447,67 L296.88,67 L300.106592,63.802641 L300.106592,54.2392023 L296.88,51.0391479 Z" id="Shape"></path>
                <path d="M114.040559,0 L110.813966,3.19668512 L110.813966,63.802641 L114.040559,67 L152.521006,67 L155.747263,63.802641 L155.747263,3.19668512 L152.521006,0 L114.040559,0 L114.040559,0 Z M139.683352,51 L126.876201,51 L126.876201,16 L139.683352,16 L139.683352,51 L139.683352,51 Z" id="Shape"></path>
                <path d="M216.693855,0 L213.490391,3.19668512 L213.490391,63.802641 L216.693855,67 L255.19676,67 L258.397877,63.802641 L258.397877,51.0391479 L229.52648,51.0391479 L229.52648,15.9601782 L258.397877,15.9601782 L258.397877,3.19668512 L255.19676,0 L216.693855,0 Z" id="Shape"></path>
                <rect id="Rectangle" x="231.284916" y="27" width="22.4413408" height="13"></rect>
                <path d="M165.355307,0 L162.151844,3.19668512 L162.151844,63.802641 L165.355307,67 L203.858547,67 L207.062011,63.802641 L207.062011,36.6847245 L203.858547,33.4998315 L207.062011,30.3156124 L207.062011,3.19702204 L203.858547,0.000336918752 L165.355307,0.000336918752 L165.355307,0 Z M191.02324,27.13262 L179.792514,27.13262 L179.792514,39.86738 L191.02324,39.86738 L191.02324,51 L178.188603,51 L178.188603,16 L191.02324,16 L191.02324,27.13262 L191.02324,27.13262 Z" id="Shape"></path>
                <path d="M62.7050279,0 L59.5018994,3.19668512 L59.5018994,63.802641 L62.7050279,67 L75.5379888,67 L75.5379888,15.9601782 L88.3726257,15.9601782 L88.3726257,27.1179165 L77.1375419,27.1179165 L77.1375419,39.8814096 L88.3726257,39.8814096 L88.3726257,67 L100.394078,67 L104.409385,63.802641 L104.409385,36.6847245 L101.205922,33.4994946 L104.409385,30.3152755 L104.409385,3.19668512 L101.205922,0 L62.7050279,0 Z" id="Shape"></path>
            </g>
            <g transform="translate(0.000000, 81.000000)" id="Shape" sketch:type="MSShapeGroup">
                <path d="M0.156536313,19 L0.156536313,0 L2.91385475,0 L9.1726257,16.7551795 L9.22558659,16.7551795 L15.3767598,0 L18.1086034,0 L18.1086034,19 L16.302905,19 L16.302905,2.05638302 L16.2512849,2.05638302 L9.99117318,19 L8.29575419,19 L2.01486034,2.05638302 L1.95821229,2.05638302 L1.95821229,19 L0.156536313,19 L0.156536313,19 Z"></path>
                <path d="M21.5795531,10.0284967 C21.5795531,8.63785705 21.7702793,7.33673059 22.1490503,6.12142953 C22.5301676,4.90881051 23.0909497,3.85175003 23.8344134,2.94253721 C24.5765363,2.03567118 25.4949721,1.32057128 26.5893855,0.792879174 C27.6844693,0.265857583 28.9515084,0 30.3807821,0 C31.8667039,0 33.1706145,0.259822985 34.2915084,0.779804211 C35.4167598,1.29710339 36.3516201,2.01019177 37.1021229,2.91571678 C37.8556425,3.82325332 38.4204469,4.88534263 38.8015642,6.10835457 C39.1826816,7.3313665 39.3710615,8.63785705 39.3710615,10.0284967 C39.3710615,11.39768 39.1826816,12.6857315 38.8015642,13.8923159 C38.4201117,15.0965536 37.8603352,16.1546198 37.1158659,17.0594743 C36.3744134,17.9663404 35.444581,18.6821108 34.3310615,19.2098029 C33.2198883,19.7368245 31.9270391,20 30.4625698,20 C28.9960894,20 27.702905,19.7368245 26.5893855,19.2098029 C25.4782123,18.6821108 24.5507263,17.9663404 23.8086034,17.0594743 C23.0648045,16.1546198 22.5097207,15.0965536 22.1349721,13.8923159 C21.7635754,12.6853963 21.5795531,11.39768 21.5795531,10.0284967 L21.5795531,10.0284967 Z M30.4880447,19 C31.7275978,19 32.792514,18.7668514 33.6824581,18.2968534 C34.5750838,17.8308925 35.3081564,17.2081536 35.881676,16.4306551 C36.4582123,15.6545023 36.8815642,14.7552147 37.1577654,13.7321195 C37.4302793,12.7070057 37.5697207,11.638492 37.5697207,10.5282604 C37.5697207,9.20035622 37.4051397,8.01341777 37.0773184,6.96811795 C36.7494972,5.91608945 36.2768715,5.01915694 35.6617877,4.27799327 C35.0406704,3.53750247 34.2901676,2.97296655 33.4042458,2.58270334 C32.5210056,2.19748664 31.532514,2 30.435419,2 C29.2169832,2 28.1611173,2.24055017 27.2688268,2.7155947 C26.3741899,3.19131209 25.6417877,3.82548981 25.0672626,4.6087077 C24.4930726,5.39461706 24.0653631,6.29996042 23.7935196,7.32238274 C23.5213408,8.34682367 23.3815642,9.41331882 23.3815642,10.5282604 C23.3815642,11.6569958 23.5213408,12.733584 23.7935196,13.7573521 C24.0653631,14.7797744 24.4927374,15.681417 25.0672626,16.4565605 C25.6414525,17.236414 26.3738547,17.8520879 27.2688268,18.3130022 C28.1607821,18.7715614 29.2327374,19 30.4880447,19 L30.4880447,19 Z"></path>
                <path d="M44.7532961,2.42889916 L44.6996648,2.42889916 L44.6996648,19 L42.8979888,19 L42.8979888,0 L44.9389944,0 L55.9682682,16.5999365 L56.0212291,16.5999365 L56.0212291,0 L57.8252514,0 L57.8252514,19 L55.7306145,19 L44.7532961,2.42889916 L44.7532961,2.42889916 Z"></path>
                <path d="M60.3683799,0 L74.2635754,0 L74.2635754,1.53164155 L68.2169832,1.53164155 L68.2169832,19 L66.4153073,19 L66.4153073,1.53164155 L60.3680447,1.53164155 L60.3680447,0 L60.3683799,0 Z"></path>
                <path d="M75.0821229,19 L82.5864804,0 L84.6305028,0 L91.9464804,19 L90.0888268,19 L87.8896089,13.0380652 L79.1922905,13.0380652 L76.9394413,19 L75.0821229,19 L75.0821229,19 Z M79.801676,12 L87.2805587,12 L83.5427933,2 L79.801676,12 L79.801676,12 Z"></path>
                <path d="M102.632849,11.2139193 L102.632849,9.68487043 L110.797207,9.68487043 L110.797207,19.4984746 L109.26067,19.4984746 L109.26067,16.2546515 C108.924134,16.8171913 108.540335,17.3311207 108.105587,17.796775 C107.675531,18.2644406 107.172737,18.6590231 106.610615,18.9852157 C106.043464,19.3114084 105.388156,19.5615006 104.646034,19.7368333 C103.904581,19.912166 103.065587,20 102.128045,20 C100.924022,20 99.8105028,19.7911428 98.787486,19.3687351 C97.7597765,18.9449864 96.8788827,18.317074 96.1347486,17.4803044 C95.3932961,16.6455463 94.8144134,15.5965671 94.3987709,14.3263267 C93.9844693,13.0621208 93.7753073,11.5833585 93.7753073,9.89607429 C93.7753073,8.50414027 93.9519553,7.2074156 94.3055866,6.00020115 C94.6592179,4.79935633 95.2005587,3.75037715 95.9353073,2.86197995 C96.6697207,1.97425324 97.5905028,1.27627477 98.6926257,0.767374032 C99.7991061,0.2554561 101.103352,0 102.604358,0 C103.613296,0 104.555196,0.125046096 105.427039,0.369439136 C106.303911,0.616178886 107.089609,0.991317175 107.789162,1.49418351 C108.486369,1.99168594 109.072626,2.61892789 109.551285,3.36484629 C110.030615,4.11378189 110.374525,4.99446847 110.586034,6.01461665 L108.733408,6.01461665 C108.570503,5.31529719 108.303352,4.68034463 107.919218,4.11847531 C107.540447,3.55459452 107.087598,3.08324114 106.554637,2.70407992 C106.025028,2.3249187 105.432067,2.03560294 104.779106,1.8344564 C104.125475,1.63096316 103.444022,1.53005464 102.738101,1.53005464 C101.481788,1.53005464 100.403464,1.75131583 99.5041341,2.19082101 C98.6021229,2.6296557 97.86,3.25019277 97.2774302,4.04907975 C96.6935196,4.84997821 96.2658101,5.80978243 95.9886034,6.92882765 C95.7167598,8.04250897 95.5773184,9.2715143 95.5773184,10.6074625 C95.5773184,11.6634818 95.7328492,12.6641859 96.0422346,13.615609 C96.3489385,14.5650206 96.8024581,15.4017902 97.395419,16.1229005 C97.9883799,16.8430051 98.7110615,17.4159375 99.569162,17.8376747 C100.427263,18.2600825 101.403352,18.4709511 102.498436,18.4709511 C103.011955,18.4709511 103.542235,18.4126186 104.090615,18.2986356 C104.637318,18.185323 105.169274,17.9955748 105.678101,17.7324081 C106.192291,17.4699118 106.671285,17.1249455 107.112737,16.7038788 C107.552514,16.2801301 107.935307,15.7628482 108.251732,15.1463341 C108.551732,14.5499346 108.758547,13.9233632 108.877207,13.2736599 C108.991508,12.6239566 109.056536,11.9380469 109.072626,11.2142546 L102.632849,11.2142546 L102.632849,11.2139193 Z"></path>
                <path d="M115.147709,19 L115.147709,0 L127.844916,0 L127.844916,1.53164155 L116.94905,1.53164155 L116.94905,8.39150461 L126.785363,8.39150461 L126.785363,9.92381675 L116.94905,9.92381675 L116.94905,17.4707055 L128.112402,17.4707055 L128.112402,19 L115.147709,19 L115.147709,19 Z"></path>
                <path d="M132.088156,13.8271481 C132.159553,14.6719635 132.348603,15.3873747 132.655307,15.9760636 C132.966704,16.5667639 133.364246,17.0441517 133.850279,17.4159375 C134.338659,17.7860471 134.898771,18.0529015 135.535642,18.2205237 C136.170838,18.3874753 136.851285,18.4706158 137.578994,18.4706158 C138.425698,18.4706158 139.159777,18.3633377 139.778212,18.1538101 C140.396983,17.9436119 140.901117,17.6563076 141.289609,17.2965906 C141.678101,16.9365383 141.966034,16.5194945 142.150056,16.0441181 C142.336089,15.5680713 142.43095,15.066546 142.43095,14.5395421 C142.43095,13.7996581 142.261341,13.2032586 141.924469,12.7436387 C141.587263,12.2867009 141.152514,11.9152503 140.61352,11.6225821 C140.07352,11.3325958 139.455084,11.1006068 138.755531,10.9252741 C138.058324,10.7492708 137.342346,10.5749438 136.609944,10.4100037 C135.875866,10.2430521 135.159553,10.0445875 134.462011,9.8172919 C133.764469,9.58630863 133.143687,9.27956016 132.606704,8.89201783 C132.067374,8.50447551 131.627933,8.00999028 131.293408,7.40185725 C130.957877,6.79439472 130.788268,6.02567971 130.788268,5.09303027 C130.788268,4.44332696 130.925363,3.8083744 131.20257,3.192866 C131.472067,2.57936907 131.881341,2.03325623 132.420335,1.55653894 C132.957989,1.08183312 133.636425,0.70535385 134.448268,0.421066747 C135.261788,0.142143552 136.198659,0 137.258883,0 C138.336872,0 139.278771,0.14918368 140.082905,0.449897751 C140.885698,0.748600355 141.554413,1.15759831 142.085363,1.67555064 C142.612961,2.19417346 143.012849,2.79660733 143.279665,3.48586946 C143.542458,4.17010292 143.67486,4.89825338 143.67486,5.67266754 L141.952626,5.67266754 C141.952626,4.95256294 141.825251,4.32632673 141.568827,3.7999933 C141.310726,3.2716484 140.962123,2.84085957 140.52067,2.50695632 C140.076201,2.17372356 139.574078,1.92698381 139.009609,1.76975427 C138.444134,1.60816655 137.860559,1.53005464 137.259218,1.53005464 C136.338436,1.53005464 135.56648,1.65979416 134.938659,1.91390928 C134.311508,2.17003587 133.811732,2.49991619 133.441341,2.90388548 C133.069944,3.30785477 132.81419,3.75775252 132.672402,4.24888531 C132.530615,4.74068859 132.50514,5.23316236 132.592961,5.72731235 C132.698212,6.34416172 132.944246,6.83395354 133.33743,7.2043984 C133.723575,7.57249656 134.202235,7.87756881 134.766704,8.11458648 C135.332179,8.35160414 135.954972,8.54403433 136.636425,8.69455899 C137.317207,8.84441315 138.012402,9.00231319 138.717318,9.17060579 C139.423911,9.33688692 140.111732,9.53401053 140.772067,9.76264709 C141.437095,9.99262463 142.02067,10.3003788 142.53419,10.6892621 C143.04838,11.074793 143.459665,11.5692782 143.768715,12.177076 C144.075419,12.7835328 144.233631,13.5448724 144.233631,14.4614302 C144.233631,16.2194509 143.62257,17.5838949 142.404134,18.5497335 C141.183352,19.5169131 139.468492,20 137.259553,20 C136.271397,20 135.35095,19.8716015 134.502235,19.6188273 C133.65352,19.3640417 132.918771,18.9751584 132.3,18.4592175 C131.68257,17.9385833 131.20324,17.2962553 130.854302,16.5288813 C130.512737,15.7675417 130.337765,14.8650642 130.337765,13.8264776 L132.088156,13.8264776 L132.088156,13.8271481 Z"></path>
                <path d="M147.54838,19 L147.54838,0 L160.245922,0 L160.245922,1.53164155 L149.350056,1.53164155 L149.350056,8.39150461 L159.186369,8.39150461 L159.186369,9.92381675 L149.350056,9.92381675 L149.350056,17.4707055 L160.511061,17.4707055 L160.511061,19 L147.54838,19 L147.54838,19 Z"></path>
                <path d="M165.52257,10.3729331 L165.52257,18.9996647 L163.719218,18.9996647 L163.719218,0 L171.195754,0 C173.299106,0 174.907709,0.393632979 176.021564,1.17419309 C177.135419,1.95877671 177.693184,3.22919865 177.693184,4.98948241 C177.693184,6.18379304 177.448827,7.13401098 176.963128,7.83812448 C176.477095,8.54223799 175.687039,9.14006388 174.588939,9.63327863 C175.154749,9.82573632 175.596201,10.1073817 175.916648,10.4741913 C176.232737,10.8467009 176.472402,11.2671573 176.630279,11.7419309 C176.790838,12.2187164 176.893073,12.7216546 176.936983,13.2467221 C176.979553,13.7778248 177.00905,14.2867983 177.027821,14.7783366 C177.046927,15.4998853 177.077095,16.0990524 177.123352,16.5721496 C177.164916,17.048935 177.216536,17.434521 177.281564,17.7319251 C177.344246,18.0323469 177.416313,18.2683925 177.507151,18.4320151 C177.594972,18.6003318 177.70257,18.7307604 177.825251,18.8159246 L177.825251,19 L175.837877,19 C175.643128,18.6838195 175.505363,18.2435809 175.424246,17.6816313 C175.345475,17.1210228 175.282123,16.527891 175.240223,15.9129652 C175.193966,15.2973688 175.159106,14.7008841 175.133296,14.1178111 C175.105475,13.5370851 175.056872,13.062982 174.987151,12.6928195 C174.88257,12.1831754 174.710615,11.7747896 174.471285,11.4669914 C174.231955,11.1612049 173.943352,10.9254946 173.608492,10.767572 C173.273966,10.6103199 172.897542,10.5030265 172.48324,10.4487091 C172.064581,10.3970741 171.637207,10.3732684 171.195754,10.3732684 L165.52257,10.3732684 L165.52257,10.3729331 Z M171.142123,9 C171.813855,9 172.436648,8.93289299 173.011173,8.79739461 C173.588045,8.66253842 174.087486,8.4467685 174.510503,8.15458007 C174.936201,7.85789643 175.270726,7.48158341 175.519441,7.02756754 C175.76581,6.57355167 175.889497,6.02545755 175.889497,5.38456952 C175.889497,4.71157286 175.761453,4.15673593 175.505698,3.71781111 C175.247598,3.28017063 174.903687,2.93339755 174.471285,2.68166598 C174.036536,2.42832898 173.541117,2.253337 172.985363,2.15123159 C172.429609,2.0510527 171.848715,2 171.248715,2 L165.52257,2 L165.52257,9 L171.142123,9 L171.142123,9 Z"></path>
                <path d="M179.76,0 L181.642793,0 L187.396425,16.8899693 L193.12257,0 L195.003352,0 L188.375531,19 L186.387486,19 L179.76,0 L179.76,0 Z"></path>
                <path d="M198.264804,19 L198.264804,0 L200.071844,0 L200.071844,19 L198.264804,19 L198.264804,19 Z"></path>
                <path d="M218.548827,6.01448304 C218.176425,4.3985517 217.488603,3.2452729 216.481676,2.55732868 C215.475754,1.87307228 214.15676,1.53010594 212.532067,1.53010594 C211.381006,1.53010594 210.388156,1.76109696 209.560894,2.21838541 C208.728603,2.67533861 208.044804,3.29019713 207.506145,4.06497251 C206.966145,4.83840687 206.569274,5.73085691 206.310838,6.74098163 C206.058436,7.7514416 205.930056,8.82459434 205.930056,9.94937642 C205.930056,11.0030844 206.038994,12.042041 206.260223,13.0622234 C206.480782,14.0837468 206.848156,14.9932949 207.35933,15.7915382 C207.875531,16.594475 208.564022,17.2411828 209.428492,17.732332 C210.295642,18.2241518 211.381006,18.4708998 212.689609,18.4708998 C213.503799,18.4708998 214.242905,18.3384739 214.917654,18.0732868 C215.589385,17.8114523 216.177318,17.4480354 216.679106,16.9796835 C217.184246,16.5153547 217.609274,15.9621832 217.953184,15.3295561 C218.299441,14.6969291 218.558212,14.0029502 218.734525,13.2459434 L220.617989,13.2459434 C220.403799,14.1595146 220.097095,15.0264852 219.690168,15.8455143 C219.283575,16.6615261 218.748939,17.3789728 218.085587,17.9951723 C217.423575,18.6120424 216.619441,19.0991686 215.673184,19.4592329 C214.728939,19.8186268 213.618436,20 212.346369,20 C210.879218,20 209.623911,19.7334719 208.580112,19.1953869 C207.536313,18.6589781 206.685251,17.9334853 206.02324,17.0195789 C205.359888,16.1043315 204.877207,15.0452595 204.576536,13.8393456 C204.27486,12.635108 204.126034,11.3530911 204.126034,10.0010058 C204.126034,8.18928524 204.35095,6.64979214 204.802123,5.38286174 C205.253966,4.11861338 205.87676,3.08334451 206.671844,2.28308971 C207.466927,1.48283492 208.403799,0.902172455 209.482458,0.541437575 C210.558101,0.180702695 211.735307,0 213.008715,0 C213.981117,0 214.887821,0.127732332 215.726145,0.382526485 C216.565475,0.640673193 217.307598,1.02018238 217.95352,1.5304412 C218.59743,2.03935899 219.129721,2.67299182 219.544022,3.41759421 C219.960335,4.16487864 220.248268,5.0308435 220.403799,6.01515355 L218.548827,6.01515355 L218.548827,6.01448304 Z"></path>
                <path d="M224.144916,19 L224.144916,0 L236.844804,0 L236.844804,1.53164155 L225.948603,1.53164155 L225.948603,8.39150461 L235.78257,8.39150461 L235.78257,9.92381675 L225.948603,9.92381675 L225.948603,17.4707055 L237.110279,17.4707055 L237.110279,19 L224.144916,19 L224.144916,19 Z"></path>
                <path d="M255.828939,11.2139193 L255.828939,9.68487043 L263.993296,9.68487043 L263.993296,19.4984746 L262.457095,19.4984746 L262.457095,16.2546515 C262.120223,16.8171913 261.73676,17.3311207 261.304358,17.796775 C260.869609,18.2644406 260.371508,18.6590231 259.807039,18.9852157 C259.237542,19.3114084 258.586927,19.5615006 257.844804,19.7368333 C257.098659,19.912166 256.262011,20 255.324469,20 C254.122458,20 253.009274,19.7911428 251.981564,19.3687351 C250.959218,18.9449864 250.072961,18.317074 249.331508,17.4803044 C248.590056,16.6455463 248.011173,15.5965671 247.59486,14.3263267 C247.181229,13.0621208 246.972067,11.5833585 246.972067,9.89607429 C246.972067,8.50414027 247.151397,7.2074156 247.502346,6.00020115 C247.855307,4.79935633 248.398994,3.75037715 249.134413,2.86197995 C249.868492,1.97425324 250.786927,1.27627477 251.893408,0.767374032 C252.995866,0.2554561 254.300112,0 255.801453,0 C256.807374,0 257.749274,0.125046096 258.626145,0.369439136 C259.503017,0.616178886 260.286369,0.991317175 260.985922,1.49418351 C261.68514,1.99168594 262.271061,2.61892789 262.748045,3.36484629 C263.227374,4.11378189 263.571285,4.99446847 263.782793,6.01461665 L261.92514,6.01461665 C261.766927,5.31529719 261.495084,4.68034463 261.118324,4.11847531 C260.736872,3.55459452 260.284358,3.08324114 259.751397,2.70407992 C259.221453,2.3249187 258.631173,2.03560294 257.977542,1.8344564 C257.324581,1.63096316 256.640782,1.53005464 255.93486,1.53005464 C254.681229,1.53005464 253.600559,1.75131583 252.700894,2.19082101 C251.798883,2.6296557 251.054413,3.25019277 250.47352,4.04907975 C249.890279,4.84997821 249.460223,5.80978243 249.185363,6.92882765 C248.91352,8.04250897 248.773743,9.2715143 248.773743,10.6074625 C248.773743,11.6634818 248.929609,12.6641859 249.241006,13.615609 C249.547709,14.5650206 249.998883,15.4017902 250.591508,16.1229005 C251.184469,16.8430051 251.907151,17.4159375 252.767933,17.8376747 C253.623017,18.2600825 254.599777,18.4709511 255.694525,18.4709511 C256.208045,18.4709511 256.738659,18.4126186 257.287039,18.2986356 C257.836089,18.185323 258.363352,17.9955748 258.877542,17.7324081 C259.391061,17.4699118 259.868045,17.1249455 260.311173,16.7038788 C260.751285,16.2801301 261.132737,15.7628482 261.450503,15.1463341 C261.750168,14.5499346 261.954972,13.9233632 262.071285,13.2736599 C262.187933,12.6239566 262.252961,11.9380469 262.271061,11.2142546 L255.828939,11.2142546 L255.828939,11.2139193 Z"></path>
                <path d="M268.343464,19 L268.343464,0 L275.236089,0 C276.352291,0 277.305251,0.114671937 278.100335,0.345692302 C278.895419,0.573024389 279.544022,0.898934105 280.050503,1.32006847 C280.552626,1.74187343 280.918324,2.24985 281.150279,2.8379628 C281.378212,3.42875799 281.49419,4.07487735 281.49419,4.7763209 C281.49419,5.44356404 281.405698,6.0212826 281.227374,6.5071295 C281.050726,6.9909646 280.822458,7.39265168 280.541229,7.71856139 C280.254972,8.04346522 279.934525,8.29929764 279.571844,8.48337628 C279.206816,8.6701373 278.835084,8.79788586 278.444246,8.86729256 L278.444246,8.92161084 C279.771955,9.11273074 280.757765,9.63277803 281.401006,10.4737056 C282.047598,11.3203332 282.368715,12.3755162 282.368715,13.6439488 C282.368715,14.6300604 282.215196,15.4626054 281.906145,16.1509724 C281.596425,16.8366569 281.166369,17.3898987 280.617654,17.8137155 C280.072291,18.2348498 279.414302,18.5406417 278.644693,18.7253909 C277.874413,18.9087989 277.040112,18.9996647 276.138101,18.9996647 L268.343464,18.9996647 L268.343464,19 Z M270.14514,9 L274.70648,9 C275.642682,9 276.431061,8.91788054 277.068603,8.76082706 C277.703128,8.5969303 278.216648,8.35912601 278.602458,8.04501906 C278.993631,7.7329651 279.271844,7.34529279 279.439106,6.88679245 C279.606704,6.42897644 279.692849,5.90238537 279.692849,5.31112523 C279.692849,4.70173037 279.592961,4.18506208 279.399888,3.76419982 C279.204469,3.34333757 278.895419,2.99775149 278.472737,2.74044384 C278.047039,2.47834588 277.493631,2.29323492 276.812179,2.17450386 C276.135754,2.05611497 275.299106,2 274.308268,2 L270.14514,2 L270.14514,9 L270.14514,9 Z M270.14514,18 L274.73162,18 C275.722123,18 276.584246,17.9505953 277.319665,17.8596055 C278.054078,17.766483 278.657765,17.5741958 279.134749,17.2862982 C279.614078,16.9955571 279.970056,16.5857473 280.209385,16.0568687 C280.446369,15.5251466 280.567039,14.8185534 280.567039,13.9438422 C280.567039,13.1032522 280.434637,12.4268704 280.169497,11.9161187 C279.904358,11.4018127 279.52324,11.0055092 279.030503,10.7275635 C278.535084,10.4464191 277.942793,10.2569753 277.251285,10.1521237 C276.563128,10.0501155 275.79419,10 274.94581,10 L270.14514,10 L270.14514,18 L270.14514,18 Z"></path>
                <path d="M287.803911,10.3729331 L287.803911,18.9996647 L286.002235,18.9996647 L286.002235,0 L293.479441,0 C295.580782,0 297.18905,0.393632979 298.305251,1.17419309 C299.416425,1.95877671 299.973855,3.22919865 299.973855,4.98948241 C299.973855,6.18379304 299.730168,7.13401098 299.244469,7.83812448 C298.761117,8.54223799 297.967709,9.14006388 296.872626,9.63327863 C297.437765,9.82573632 297.879218,10.1073817 298.197989,10.4741913 C298.514078,10.8467009 298.756089,11.2671573 298.91162,11.7419309 C299.072179,12.2187164 299.172067,12.7216546 299.218324,13.2467221 C299.262235,13.7778248 299.292737,14.2867983 299.311508,14.7783366 C299.330279,15.4998853 299.357765,16.0990524 299.404693,16.5721496 C299.448603,17.048935 299.502235,17.434521 299.560223,17.7319251 C299.625251,18.0323469 299.7,18.2683925 299.788156,18.4320151 C299.878324,18.6003318 299.982905,18.7307604 300.106257,18.8159246 L300.106257,19 L298.115866,19 C297.922793,18.6838195 297.785698,18.2435809 297.706927,17.6816313 C297.62581,17.1210228 297.568156,16.527891 297.521229,15.9129652 C297.474972,15.2973688 297.442458,14.7008841 297.414302,14.1178111 C297.38648,13.5370851 297.340223,13.062982 297.267486,12.6928195 C297.162905,12.1831754 296.993296,11.7747896 296.751955,11.4669914 C296.514637,11.1612049 296.226369,10.9254946 295.888827,10.767572 C295.552291,10.6103199 295.179888,10.5030265 294.766257,10.4487091 C294.347598,10.3970741 293.920223,10.3732684 293.478771,10.3732684 L287.803911,10.3732684 L287.803911,10.3729331 Z M293.42514,9 C294.099888,9 294.720335,8.93289299 295.29419,8.79739461 C295.86905,8.66253842 296.370503,8.4467685 296.791508,8.15458007 C297.217207,7.85789643 297.551732,7.48158341 297.800447,7.02756754 C298.04648,6.57355167 298.170503,6.02545755 298.170503,5.38456952 C298.170503,4.71157286 298.042458,4.15673593 297.786369,3.71781111 C297.531285,3.28017063 297.185028,2.93339755 296.752626,2.68166598 C296.317207,2.42832898 295.824804,2.253337 295.26905,2.15123159 C294.708603,2.0510527 294.132402,2 293.532402,2 L287.803911,2 L287.803911,9 L293.42514,9 L293.42514,9 Z"></path>
            </g>
        </g>
    </g>
</svg>