<?xml version="1.0" encoding="utf-8"?>
<!-- Generator: Adobe Illustrator 16.0.0, SVG Export Plug-In . SVG Version: 6.00 Build 0)  -->
<!DOCTYPE svg PUBLIC "-//W3C//DTD SVG 1.1//EN" "http://www.w3.org/Graphics/SVG/1.1/DTD/svg11.dtd">
<svg version="1.1" id="Layer_1" xmlns="http://www.w3.org/2000/svg" xmlns:xlink="http://www.w3.org/1999/xlink" x="0px" y="0px"
	 width="100%" height="100%" viewBox="0 0 1073.785 618.062" xml:space="preserve">
<g>
	<g>
		<g>
			<path fill="#F0EBED" d="M213.892,159.888l-9.625,9.488v142h-14.336v-142l-9.552-9.488h-23.962l-9.55,9.488v142h-14.336v-142
				l-11.977-9.488h-19.108l-11.979,9.488v179.883l9.552,9.49h136.408c6.575,0,11.909-4.281,11.909-9.49V169.376l-9.557-9.488
				H213.892z"/>
			<polygon fill="#F0EBED" points="974.692,311.376 926.851,311.376 926.851,169.376 917.292,159.888 888.552,159.888 
				879.002,169.376 879.002,349.259 890.981,358.749 974.692,358.749 984.318,349.259 984.318,320.874 			"/>
			<path fill="#F0EBED" d="M429.221,159.888l-9.626,9.488v179.883l9.626,9.49h114.8l9.625-9.49V169.376l-9.625-9.488H429.221z
				 M505.722,311.376h-38.208V207.259h38.208V311.376z"/>
			<polygon fill="#F0EBED" points="735.47,159.888 725.913,169.376 725.913,349.259 735.47,358.749 850.337,358.749 
				859.887,349.259 859.887,311.376 773.754,311.376 773.754,207.259 859.887,207.259 859.887,169.376 850.337,159.888 			"/>
			<rect x="778.539" y="240.376" fill="#F0EBED" width="66.95" height="37.883"/>
			<path fill="#F0EBED" d="M582.31,159.888l-9.557,9.488v179.883l9.557,9.49h114.868l9.557-9.49v-80.488l-9.557-9.453l9.557-9.451
				v-80.49l-9.557-9.488H582.31z M658.886,240.376h-33.505v37.883h33.505v33.117h-38.29V207.259h38.29V240.376z"/>
			<polygon fill="#F0EBED" points="276.07,159.888 266.514,169.376 266.514,349.259 276.07,358.749 314.355,358.749 
				314.355,207.259 352.645,207.259 352.645,240.376 319.127,240.376 319.127,278.259 352.645,278.259 352.645,358.749 
				388.509,358.749 400.488,349.259 400.488,268.771 390.931,259.317 400.488,249.866 400.488,169.376 390.931,159.888 			"/>
		</g>
	</g>
	<g>
		<path fill="#F0EBED" d="M89.467,456.677v-56.666h8.226l18.672,49.971h0.158l18.351-49.971h8.15v56.666h-5.387v-50.533h-0.154
			l-18.676,50.533h-5.058l-18.738-50.533h-0.169v50.533H89.467z"/>
		<path fill="#F0EBED" d="M153.379,428.429c0-4.148,0.569-8.029,1.699-11.654c1.137-3.617,2.81-6.77,5.028-9.482
			c2.214-2.705,4.954-4.838,8.219-6.412c3.267-1.572,7.047-2.365,11.311-2.365c4.433,0,8.323,0.775,11.667,2.326
			c3.357,1.543,6.146,3.67,8.385,6.371c2.248,2.707,3.933,5.875,5.07,9.523c1.137,3.648,1.699,7.545,1.699,11.693
			c0,4.084-0.562,7.926-1.699,11.525c-1.138,3.592-2.808,6.748-5.029,9.447c-2.212,2.705-4.986,4.84-8.308,6.414
			c-3.315,1.572-7.172,2.357-11.541,2.357c-4.375,0-8.233-0.785-11.555-2.357c-3.315-1.574-6.082-3.709-8.296-6.414
			c-2.219-2.699-3.875-5.855-4.993-9.447C153.928,436.354,153.379,432.513,153.379,428.429z M179.956,453.61
			c3.698,0,6.875-0.693,9.53-2.09c2.663-1.385,4.85-3.236,6.561-5.547c1.72-2.307,2.983-4.98,3.807-8.021
			c0.813-3.047,1.229-6.223,1.229-9.523c0-3.947-0.491-7.475-1.469-10.582c-0.978-3.127-2.388-5.793-4.223-7.996
			c-1.853-2.201-4.092-3.879-6.735-5.039c-2.635-1.145-5.584-1.732-8.857-1.732c-3.635,0-6.785,0.715-9.447,2.127
			c-2.669,1.414-4.854,3.299-6.568,5.627c-1.713,2.336-2.989,5.027-3.8,8.066c-0.812,3.045-1.229,6.215-1.229,9.529
			c0,3.355,0.417,6.555,1.229,9.598c0.811,3.039,2.086,5.719,3.8,8.023c1.713,2.318,3.898,4.148,6.568,5.518
			C173.013,452.931,176.211,453.61,179.956,453.61z"/>
		<path fill="#F0EBED" d="M222.514,407.255h-0.16v49.422h-5.375v-56.666h6.089l32.904,49.508h0.158v-49.508h5.382v56.666h-6.249
			L222.514,407.255z"/>
		<path fill="#F0EBED" d="M269.099,400.011h41.454v4.568h-18.039v52.098h-5.375v-52.098h-18.041V400.011z"/>
		<path fill="#F0EBED" d="M312.995,456.677l22.388-56.666h6.098l21.826,56.666h-5.542l-6.561-17.781h-25.947l-6.721,17.781H312.995z
			 M327.075,434.331h22.312l-11.151-29.752L327.075,434.331z"/>
		<path fill="#F0EBED" d="M395.188,431.964v-4.561h24.357v29.273h-4.584v-9.676c-1.004,1.678-2.149,3.211-3.446,4.6
			c-1.283,1.395-2.783,2.572-4.46,3.545c-1.692,0.973-3.647,1.719-5.861,2.242c-2.212,0.523-4.715,0.785-7.512,0.785
			c-3.592,0-6.914-0.623-9.966-1.883c-3.066-1.264-5.694-3.137-7.914-5.633c-2.212-2.49-3.939-5.619-5.179-9.408
			c-1.236-3.771-1.86-8.182-1.86-13.215c0-4.152,0.527-8.02,1.582-11.621c1.055-3.582,2.67-6.711,4.862-9.361
			c2.191-2.648,4.938-4.73,8.226-6.248c3.301-1.527,7.192-2.289,11.67-2.289c3.01,0,5.82,0.373,8.421,1.102
			c2.616,0.736,4.96,1.855,7.047,3.355c2.08,1.484,3.829,3.355,5.257,5.58c1.43,2.234,2.456,4.861,3.087,7.904h-5.527
			c-0.486-2.086-1.283-3.98-2.429-5.656c-1.13-1.682-2.481-3.088-4.071-4.219c-1.58-1.131-3.349-1.994-5.297-2.594
			c-1.95-0.607-3.983-0.908-6.089-0.908c-3.748,0-6.965,0.66-9.648,1.971c-2.691,1.309-4.905,3.16-6.643,5.543
			c-1.742,2.389-3.018,5.252-3.845,8.59c-0.811,3.322-1.227,6.988-1.227,10.973c0,3.15,0.464,6.135,1.387,8.973
			c0.915,2.832,2.268,5.328,4.037,7.479c1.769,2.148,3.925,3.857,6.485,5.115c2.56,1.26,5.472,1.889,8.739,1.889
			c1.532,0,3.114-0.174,4.75-0.514c1.631-0.338,3.218-0.904,4.736-1.689c1.534-0.783,2.963-1.812,4.28-3.068
			c1.312-1.264,2.454-2.807,3.398-4.646c0.895-1.779,1.512-3.648,1.866-5.586c0.341-1.938,0.535-3.984,0.583-6.143H395.188z"/>
		<path fill="#F0EBED" d="M432.524,456.677v-56.666h37.88v4.568h-32.506v20.459h29.345v4.57h-29.345v22.508h33.304v4.561H432.524z"
			/>
		<path fill="#F0EBED" d="M483.063,439.759c0.213,2.52,0.777,4.654,1.692,6.41c0.929,1.762,2.115,3.186,3.565,4.295
			c1.457,1.104,3.128,1.9,5.028,2.4c1.895,0.498,3.925,0.746,6.096,0.746c2.526,0,4.716-0.32,6.561-0.945
			c1.846-0.627,3.35-1.484,4.509-2.557c1.159-1.074,2.018-2.318,2.567-3.736c0.555-1.42,0.838-2.916,0.838-4.488
			c0-2.207-0.506-3.986-1.511-5.357c-1.006-1.363-2.303-2.471-3.911-3.344c-1.611-0.865-3.456-1.557-5.543-2.08
			c-2.08-0.525-4.216-1.045-6.401-1.537c-2.19-0.498-4.327-1.09-6.408-1.768c-2.081-0.689-3.933-1.604-5.535-2.76
			c-1.609-1.156-2.92-2.631-3.918-4.445c-1.001-1.812-1.507-4.105-1.507-6.887c0-1.938,0.409-3.832,1.236-5.668
			c0.804-1.83,2.025-3.459,3.633-4.881c1.604-1.416,3.628-2.539,6.05-3.387c2.427-0.832,5.222-1.256,8.385-1.256
			c3.216,0,6.026,0.445,8.425,1.342c2.395,0.891,4.39,2.111,5.974,3.656c1.574,1.547,2.767,3.344,3.563,5.4
			c0.784,2.041,1.179,4.213,1.179,6.523h-5.138c0-2.148-0.38-4.016-1.145-5.586c-0.77-1.576-1.81-2.861-3.127-3.857
			c-1.326-0.994-2.824-1.73-4.508-2.199c-1.687-0.482-3.428-0.715-5.222-0.715c-2.747,0-5.05,0.387-6.923,1.145
			c-1.871,0.764-3.362,1.748-4.467,2.953c-1.108,1.205-1.871,2.547-2.294,4.012c-0.423,1.467-0.499,2.936-0.237,4.41
			c0.314,1.84,1.048,3.301,2.221,4.406c1.152,1.098,2.58,2.008,4.264,2.715c1.687,0.707,3.545,1.281,5.578,1.73
			c2.031,0.447,4.105,0.918,6.208,1.42c2.108,0.496,4.16,1.084,6.13,1.766c1.984,0.686,3.725,1.604,5.257,2.764
			c1.534,1.15,2.761,2.625,3.683,4.438c0.915,1.809,1.387,4.08,1.387,6.814c0,5.244-1.823,9.314-5.458,12.195
			c-3.642,2.885-8.758,4.326-15.348,4.326c-2.948,0-5.694-0.383-8.226-1.137c-2.532-0.76-4.724-1.92-6.57-3.459
			c-1.842-1.553-3.272-3.469-4.313-5.758c-1.019-2.271-1.541-4.963-1.541-8.061H483.063z"/>
		<path fill="#F0EBED" d="M529.186,456.677v-56.666h37.881v4.568h-32.506v20.459h29.345v4.57h-29.345v22.508h33.297v4.561H529.186z"
			/>
		<path fill="#F0EBED" d="M582.809,430.948v25.729h-5.38v-56.666h22.305c6.275,0,11.074,1.174,14.397,3.502
			c3.323,2.34,4.987,6.129,4.987,11.379c0,3.562-0.729,6.396-2.178,8.496c-1.45,2.1-3.807,3.883-7.083,5.354
			c1.688,0.574,3.005,1.414,3.961,2.508c0.943,1.111,1.658,2.365,2.129,3.781c0.479,1.422,0.784,2.922,0.915,4.488
			c0.127,1.584,0.215,3.102,0.271,4.568c0.057,2.152,0.147,3.939,0.285,5.35c0.124,1.422,0.278,2.572,0.472,3.459
			c0.187,0.896,0.402,1.6,0.673,2.088c0.262,0.502,0.583,0.891,0.949,1.145v0.549h-5.929c-0.581-0.943-0.992-2.256-1.234-3.932
			c-0.235-1.672-0.424-3.441-0.549-5.275c-0.138-1.836-0.242-3.615-0.319-5.354c-0.083-1.732-0.228-3.146-0.436-4.25
			c-0.312-1.52-0.825-2.738-1.539-3.656c-0.714-0.912-1.575-1.615-2.574-2.086c-0.998-0.469-2.121-0.789-3.357-0.951
			c-1.249-0.154-2.524-0.225-3.841-0.225H582.809z M599.574,426.38c2.004,0,3.862-0.209,5.576-0.631
			c1.721-0.42,3.211-1.092,4.473-2.002c1.27-0.924,2.268-2.096,3.01-3.51c0.735-1.414,1.104-3.121,1.104-5.117
			c0-2.096-0.382-3.824-1.145-5.191c-0.77-1.363-1.796-2.443-3.086-3.227c-1.297-0.789-2.775-1.334-4.433-1.652
			c-1.658-0.312-3.391-0.471-5.181-0.471h-17.083v21.801H599.574z"/>
		<path fill="#F0EBED" d="M625.284,400.011h5.617l17.165,50.373l17.083-50.373h5.611l-19.773,56.666h-5.931L625.284,400.011z"/>
		<path fill="#F0EBED" d="M680.49,456.677v-56.666h5.391v56.666H680.49z"/>
		<path fill="#F0EBED" d="M741.004,416.456c-1.111-4.82-3.163-8.26-6.167-10.312c-3.001-2.041-6.936-3.064-11.783-3.064
			c-3.434,0-6.396,0.689-8.864,2.053c-2.483,1.363-4.523,3.197-6.13,5.508c-1.611,2.307-2.795,4.969-3.566,7.982
			c-0.753,3.014-1.136,6.215-1.136,9.57c0,3.143,0.325,6.242,0.985,9.285c0.658,3.047,1.754,5.76,3.279,8.141
			c1.54,2.395,3.594,4.324,6.173,5.789c2.587,1.467,5.825,2.203,9.729,2.203c2.429,0,4.634-0.395,6.647-1.186
			c2.004-0.781,3.758-1.865,5.255-3.262c1.507-1.385,2.775-3.035,3.801-4.922c1.033-1.887,1.805-3.957,2.331-6.215h5.619
			c-0.639,2.725-1.554,5.311-2.768,7.754c-1.213,2.434-2.808,4.574-4.787,6.412c-1.975,1.84-4.374,3.293-7.197,4.367
			c-2.817,1.072-6.13,1.613-9.925,1.613c-4.377,0-8.122-0.795-11.236-2.4c-3.114-1.6-5.653-3.764-7.628-6.49
			c-1.979-2.73-3.419-5.889-4.316-9.486c-0.9-3.592-1.344-7.416-1.344-11.449c0-5.404,0.671-9.996,2.017-13.775
			c1.348-3.771,3.206-6.859,5.578-9.246s5.167-4.119,8.385-5.195c3.209-1.076,6.721-1.615,10.52-1.615
			c2.901,0,5.606,0.381,8.107,1.141c2.504,0.77,4.718,1.902,6.645,3.424c1.921,1.518,3.509,3.408,4.745,5.629
			c1.242,2.229,2.101,4.812,2.565,7.748H741.004z"/>
		<path fill="#F0EBED" d="M757.699,456.677v-56.666h37.888v4.568H763.08v20.459h29.338v4.57H763.08v22.508h33.299v4.561H757.699z"/>
		<path fill="#F0EBED" d="M852.223,431.964v-4.561h24.357v29.273h-4.583v-9.676c-1.005,1.678-2.149,3.211-3.439,4.6
			c-1.297,1.395-2.783,2.572-4.467,3.545c-1.699,0.973-3.64,1.719-5.854,2.242c-2.226,0.523-4.722,0.785-7.519,0.785
			c-3.586,0-6.907-0.623-9.973-1.883c-3.05-1.264-5.694-3.137-7.906-5.633c-2.212-2.49-3.939-5.619-5.181-9.408
			c-1.234-3.771-1.858-8.182-1.858-13.215c0-4.152,0.535-8.02,1.582-11.621c1.053-3.582,2.675-6.711,4.869-9.361
			c2.19-2.648,4.93-4.73,8.231-6.248c3.289-1.527,7.18-2.289,11.659-2.289c3.001,0,5.811,0.373,8.427,1.102
			c2.616,0.736,4.953,1.855,7.04,3.355c2.086,1.484,3.834,3.355,5.257,5.58c1.43,2.234,2.456,4.861,3.087,7.904h-5.542
			c-0.472-2.086-1.283-3.98-2.407-5.656c-1.138-1.682-2.488-3.088-4.078-4.219c-1.581-1.131-3.342-1.994-5.292-2.594
			c-1.948-0.607-3.988-0.908-6.094-0.908c-3.74,0-6.964,0.66-9.648,1.971c-2.691,1.309-4.912,3.16-6.645,5.543
			c-1.74,2.389-3.023,5.252-3.843,8.59c-0.811,3.322-1.228,6.988-1.228,10.973c0,3.15,0.465,6.135,1.394,8.973
			c0.915,2.832,2.261,5.328,4.029,7.479c1.769,2.148,3.925,3.857,6.493,5.115c2.551,1.26,5.465,1.889,8.731,1.889
			c1.532,0,3.115-0.174,4.751-0.514c1.638-0.338,3.211-0.904,4.745-1.689c1.532-0.783,2.955-1.812,4.277-3.068
			c1.313-1.264,2.451-2.807,3.399-4.646c0.894-1.779,1.505-3.648,1.852-5.586c0.348-1.938,0.542-3.984,0.596-6.143H852.223z"/>
		<path fill="#F0EBED" d="M889.558,456.677v-56.666h20.563c3.33,0,6.173,0.342,8.545,1.031c2.372,0.678,4.307,1.65,5.818,2.906
			c1.498,1.258,2.589,2.773,3.281,4.527c0.68,1.762,1.026,3.689,1.026,5.781c0,1.99-0.264,3.713-0.796,5.162
			c-0.527,1.443-1.208,2.641-2.047,3.613c-0.854,0.969-1.81,1.732-2.892,2.281c-1.089,0.557-2.198,0.938-3.364,1.145v0.162
			c3.961,0.57,6.902,2.121,8.821,4.629c1.929,2.525,2.887,5.672,2.887,9.455c0,2.941-0.458,5.424-1.38,7.477
			c-0.924,2.045-2.207,3.695-3.844,4.959c-1.627,1.256-3.59,2.168-5.886,2.719c-2.298,0.547-4.787,0.818-7.478,0.818H889.558z
			 M894.933,425.038h13.608c2.793,0,5.145-0.24,7.047-0.699c1.893-0.479,3.425-1.174,4.576-2.092
			c1.167-0.912,1.997-2.045,2.496-3.385c0.5-1.338,0.757-2.877,0.757-4.605c0-1.781-0.298-3.291-0.874-4.521
			c-0.583-1.23-1.505-2.24-2.766-2.992c-1.27-0.766-2.921-1.307-4.954-1.654c-2.018-0.346-4.514-0.51-7.47-0.51h-12.42V425.038z
			 M894.933,452.116h13.683c2.955,0,5.527-0.139,7.721-0.395c2.191-0.262,3.992-0.803,5.415-1.613
			c1.43-0.818,2.492-1.971,3.206-3.459c0.707-1.496,1.067-3.484,1.067-5.945c0-2.365-0.395-4.268-1.186-5.705
			c-0.791-1.447-1.928-2.562-3.398-3.344c-1.478-0.791-3.245-1.324-5.308-1.619c-2.053-0.287-4.347-0.428-6.878-0.428h-14.322
			V452.116z"/>
		<path fill="#F0EBED" d="M947.615,430.948v25.729h-5.375v-56.666h22.307c6.269,0,11.067,1.174,14.397,3.502
			c3.315,2.34,4.978,6.129,4.978,11.379c0,3.562-0.727,6.396-2.176,8.496c-1.442,2.1-3.809,3.883-7.076,5.354
			c1.686,0.574,3.003,1.414,3.954,2.508c0.943,1.111,1.665,2.365,2.129,3.781c0.479,1.422,0.777,2.922,0.915,4.488
			c0.131,1.584,0.222,3.102,0.278,4.568c0.056,2.152,0.138,3.939,0.278,5.35c0.131,1.422,0.291,2.572,0.464,3.459
			c0.194,0.896,0.417,1.6,0.68,2.088c0.269,0.502,0.581,0.891,0.949,1.145v0.549h-5.938c-0.576-0.943-0.985-2.256-1.22-3.932
			c-0.242-1.672-0.414-3.441-0.554-5.275c-0.138-1.836-0.235-3.615-0.319-5.354c-0.083-1.732-0.221-3.146-0.438-4.25
			c-0.312-1.52-0.818-2.738-1.538-3.656c-0.708-0.912-1.568-1.615-2.575-2.086c-1.004-0.469-2.115-0.789-3.349-0.951
			c-1.249-0.154-2.524-0.225-3.841-0.225H947.615z M964.385,426.38c2.013,0,3.864-0.209,5.576-0.631
			c1.715-0.42,3.211-1.092,4.467-2.002c1.27-0.924,2.268-2.096,3.01-3.51c0.734-1.414,1.104-3.121,1.104-5.117
			c0-2.096-0.382-3.824-1.146-5.191c-0.761-1.363-1.794-2.443-3.084-3.227c-1.299-0.789-2.768-1.334-4.426-1.652
			c-1.672-0.312-3.391-0.471-5.181-0.471h-17.09v21.801H964.385z"/>
	</g>
</g>
</svg>
